<svg fill="none" height="24" viewBox="0 0 24 24" width="24" xmlns="http://www.w3.org/2000/svg" xmlns:xlink="http://www.w3.org/1999/xlink"><linearGradient id="a"><stop offset="0" stop-color="#ffbc47"/><stop offset=".2588" stop-color="#fec14d" stop-opacity=".7412"/><stop offset=".6207" stop-color="#fdcd60" stop-opacity=".3793"/><stop offset="1" stop-color="#fbe07a" stop-opacity="0"/></linearGradient><radialGradient id="b" cx="0" cy="0" gradientTransform="matrix(2.98098808 2.98108174 -2.98115952 2.98106586 13.247 11.9972)" gradientUnits="userSpaceOnUse" r="1" xlink:href="#a"/><linearGradient id="c"><stop offset="0" stop-color="#fcce38"/><stop offset=".2151" stop-color="#fcd44f"/><stop offset=".5049" stop-color="#fbdb67"/><stop offset=".774" stop-color="#fbdf75"/><stop offset="1" stop-color="#fbe07a"/></linearGradient><linearGradient id="d" gradientUnits="userSpaceOnUse" x1="13.8615" x2="10.3986" xlink:href="#c" y1="14.6049" y2="-.015978"/><linearGradient id="e" gradientUnits="userSpaceOnUse" x1="11.5985" x2="17.5142" xlink:href="#c" y1="16.8327" y2="16.2555"/><linearGradient id="f"><stop offset="0" stop-color="#fcce38"/><stop offset=".3638" stop-color="#fcce38"/><stop offset="1" stop-color="#c86f34"/></linearGradient><linearGradient id="g" gradientUnits="userSpaceOnUse" x1="18.0216" x2="13.8534" xlink:href="#f" y1="4.61308" y2="20.1317"/><linearGradient id="h" gradientUnits="userSpaceOnUse" x1="9.05992" x2="16.2501" xlink:href="#c" y1="5.91057" y2="10.4556"/><linearGradient id="i"><stop offset="0" stop-color="#fcce38"/><stop offset=".00850916" stop-color="#fccd38"/><stop offset=".3748" stop-color="#fbb53a"/><stop offset=".7145" stop-color="#fba73b"/><stop offset="1" stop-color="#fba23b"/></linearGradient><linearGradient id="j" gradientUnits="userSpaceOnUse" x1="9.14977" x2="11.3301" xlink:href="#i" y1="19.2407" y2="7.53757"/><linearGradient id="k" gradientUnits="userSpaceOnUse" x1="15.9173" x2="12.6789" xlink:href="#i" y1="15.0073" y2="8.04956"/><radialGradient id="l" cx="0" cy="0" gradientTransform="matrix(-1.31546435 -1.31551027 1.31551027 -1.31546435 4.72061 7.74913)" gradientUnits="userSpaceOnUse" r="1" xlink:href="#a"/><linearGradient id="m" gradientUnits="userSpaceOnUse" x1="4.44852" x2="5.97663" xlink:href="#c" y1="6.5997" y2="13.0517"/><linearGradient id="n" gradientUnits="userSpaceOnUse" x1="5.44695" x2="2.83642" xlink:href="#c" y1="5.61666" y2="5.87135"/><linearGradient id="o" gradientUnits="userSpaceOnUse" x1="2.61271" x2="4.4521" xlink:href="#f" y1="11.0088" y2="4.16055"/><linearGradient id="p" gradientUnits="userSpaceOnUse" x1="6.56751" x2="3.39455" xlink:href="#c" y1="10.4361" y2="8.43047"/><linearGradient id="q" gradientUnits="userSpaceOnUse" x1="6.52771" x2="5.56556" xlink:href="#i" y1="4.55401" y2="9.71846"/><linearGradient id="r" gradientUnits="userSpaceOnUse" x1="3.54142" x2="4.9705" xlink:href="#i" y1="6.42215" y2="9.49253"/><radialGradient id="s" cx="0" cy="0" gradientTransform="matrix(1.02213495 1.02219561 -1.02219561 1.02213495 20.0145 7.78605)" gradientUnits="userSpaceOnUse" r="1" xlink:href="#a"/><linearGradient id="t" gradientUnits="userSpaceOnUse" x1="20.1721" x2="19.2811" xlink:href="#c" y1="8.45742" y2="4.69552"/><linearGradient id="u" gradientUnits="userSpaceOnUse" x1="19.4181" x2="21.4583" xlink:href="#c" y1="9.01796" y2="8.81891"/><linearGradient id="v" gradientUnits="userSpaceOnUse" x1="18.4753" x2="19.5232" xlink:href="#f" y1="9.60766" y2="5.70616"/><linearGradient id="w" gradientUnits="userSpaceOnUse" x1="18.52" x2="20.8389" xlink:href="#c" y1="6.1215" y2="7.58732"/><linearGradient id="x" gradientUnits="userSpaceOnUse" x1="18.649" x2="19.1999" xlink:href="#i" y1="9.60464" y2="6.64775"/><linearGradient id="y" gradientUnits="userSpaceOnUse" x1="20.9853" x2="20.1805" xlink:href="#i" y1="8.48525" y2="6.75613"/><radialGradient id="z" cx="0" cy="0" gradientTransform="matrix(-.90862171 -.90868514 .90868514 -.90862171 8.14942 17.6226)" gradientUnits="userSpaceOnUse" r="1" xlink:href="#a"/><linearGradient id="A" gradientUnits="userSpaceOnUse" x1="7.96155" x2="9.01706" xlink:href="#c" y1="16.8285" y2="21.285"/><linearGradient id="B" gradientUnits="userSpaceOnUse" x1="8.65115" x2="6.848" xlink:href="#c" y1="16.1495" y2="16.3254"/><linearGradient id="C" gradientUnits="userSpaceOnUse" x1="6.6936" x2="7.96412" xlink:href="#f" y1="19.874" y2="15.1437"/><linearGradient id="D" gradientUnits="userSpaceOnUse" x1="9.4251" x2="7.23347" xlink:href="#c" y1="19.4785" y2="18.0932"/><linearGradient id="E" gradientUnits="userSpaceOnUse" x1="9.39761" x2="8.73304" xlink:href="#i" y1="15.4151" y2="18.9824"/><linearGradient id="F" gradientUnits="userSpaceOnUse" x1="7.33492" x2="8.32201" xlink:href="#i" y1="16.7055" y2="18.8263"/><path d="m21.0914 6.7085c-.5943.59428-1.56.59428-2.16 0 .5943.59428.5943 1.56 0 2.16.5943-.59429 1.56-.59429 2.16 0-.5943-.6-.5943-1.56572 0-2.16z" fill="#fcce38" opacity=".5"/><path d="m16.2287 9.01709c-1.6458 1.64571-4.3143 1.64571-5.9658 0 1.6458 1.64571 1.6458 4.31431 0 5.96571 1.6458-1.6457 4.3143-1.6457 5.9658 0-1.6515-1.6457-1.6515-4.32 0-5.96571z" fill="#fcce38"/><path d="m16.2285 14.9829c-1.6457 1.6457-4.3143 1.6457-5.96 0-1.64575-1.6458-1.64575-4.3143 0-5.96004 1.6457-1.64571 4.3143-1.64571 5.96 0 1.6457 1.64004 1.6457 4.30854 0 5.96004z" fill="url(#b)"/><path d="m16.7199 12.4345 3.96-.4115c.0286-.0057.0286-.0457 0-.0457l-3.96-.4114c-1.44-.1486-2.5771-1.2914-2.72-2.72572l-.7314-7.38858c-.0057-.02857-.0458-.02857-.0458 0l-.7142 7.37715c-.1372 1.44575-1.2743 2.58855-2.72003 2.73715l-3.98286.4114c-.02857.0057-.02857.0457 0 .0457l3.98286.4115c1.44003.1485 2.57713 1.2914 2.72003 2.7371l.7142 7.3771c0 .0286.0458.0286.0458 0l.7314-7.3885c.1486-1.44 1.2857-2.5772 2.72-2.7257z" fill="url(#d)"/><path d="m13.0856 12.2172c-.8457-1.0686-7.27999-.24-7.27999-.24-.02857.0057-.02857.0457 0 .0457l3.98285.4114c1.44004.1486 2.57714 1.2914 2.72004 2.7371l.6685 6.9143.0457.0229s.7658-8.7543-.1371-9.8914z" fill="url(#e)"/><path d="m16.72 11.5655c-1.44-.1486-2.5772-1.2914-2.72-2.72571l-.4743-4.77143s-.1486 6.43424 1.2686 7.36574c1.1143.7314.7828.0285 5.8857.5428z" fill="url(#g)"/><path d="m12.7543 9.55432c.3086-3.78286.4457-5.62286.6629-6.62858l-.1486-1.48c-.0057-.02857-.0457-.02857-.0457 0l-.7143 7.37715c-.1372 1.44571-1.2743 2.58861-2.72002 2.73711l-2.63428.2743c3.0629.3543 5.4229-.1028 5.6-2.27998z" fill="url(#h)"/><path d="m13.2226 22.5487-.7143-7.3772c-.1372-1.4457-1.2743-2.5886-2.72002-2.7371l-3.98286-.4115s3.31429.1772 4.01143.1772c.69715 0 2.74285.4114 2.93145 2.96.1885 2.5486.4743 7.3886.4743 7.3886z" fill="url(#j)"/><path d="m13.2686 22.5487.7142-7.3772c.1372-1.4457 1.2743-2.5886 2.72-2.7371l3.9829-.4115s-3.3143.1772-4.0114.1772c-.6972 0-2.7429.4114-2.9315 2.96-.1885 2.5486-.4742 7.3886-.4742 7.3886z" fill="url(#k)"/><path d="m6.09149 6.37695c-.76.76-1.98857.76-2.74286 0 .76.76.76 1.98857 0 2.74286.76-.76 1.98857-.76 2.74286 0-.75429-.75429-.75429-1.98286 0-2.74286z" fill="#fcce38" opacity=".5"/><path d="m4.72003 9.61097c1.02883 0 1.86286-.83403 1.86286-1.86286s-.83403-1.86286-1.86286-1.86286c-1.02882 0-1.86285.83403-1.86285 1.86286s.83403 1.86286 1.86285 1.86286z" fill="url(#l)"/><path d="m3.18854 7.55981-1.74857.18285c-.01143 0-.01143.01715 0 .02286l1.74857.18286c.63429.06285 1.13714.57143 1.2 1.20571l.32571 3.25711c0 .0115.01715.0115.02286 0l.31429-3.25711c.06285-.63428.56571-1.14286 1.2-1.20571l1.76-.18286c.01143 0 .01143-.01714 0-.02286l-1.76-.18285c-.63429-.06858-1.13715-.57143-1.2-1.20572l-.31429-3.25714c0-.01143-.01714-.01143-.02286 0l-.32571 3.26286c-.06857.62857-.56571 1.13142-1.2 1.2z" fill="url(#m)"/><path d="m4.79407 7.65707c.37142.46857 3.21142.10286 3.21142.10286.01143 0 .01143-.01714 0-.02286l-1.76-.18286c-.63428-.06857-1.13714-.57142-1.2-1.20571l-.29714-3.05143-.01714-.01143s-.33714 3.86286.06286 4.37143z" fill="url(#n)"/><path d="m3.18851 7.94262c.63429.06286 1.13715.57143 1.2 1.20572l.21143 2.10286s.06857-2.84001-.56-3.25143c-.49143-.32-.34857-.01143-2.6-.24z" fill="url(#o)"/><path d="m4.93718 8.82816c-.13714 1.66854-.19429 2.48004-.29143 2.92574l.06286.6514c0 .0114.01714.0114.02286 0l.31428-3.25714c.06286-.63428.56572-1.14285 1.2-1.20571l1.16-.12c-1.34857-.16-2.38857.04571-2.46857 1.00571z" fill="url(#p)"/><path d="m4.73145 3.09131.31428 3.25714c.06286.63429.56571 1.14286 1.2 1.20572l1.76.18285s-1.46286-.08-1.77143-.08-1.21143-.18285-1.29714-1.30285c-.08571-1.12572-.20571-3.26286-.20571-3.26286z" fill="url(#q)"/><path d="m4.70861 3.09131-.31428 3.25714c-.06286.63429-.56572 1.14286-1.2 1.20572l-1.76.18285s1.46285-.08 1.77142-.08c.30858 0 1.21143-.18285 1.29715-1.30285.08571-1.12572.20571-3.26286.20571-3.26286z" fill="url(#r)"/><path d="m20.0114 9.23469c.7984 0 1.4457-.64727 1.4457-1.44571 0-.79845-.6473-1.44572-1.4457-1.44572-.7985 0-1.4457.64727-1.4457 1.44572 0 .79844.6472 1.44571 1.4457 1.44571z" fill="url(#s)"/><path d="m21.2058 7.89746 1.36-.10286c.0114 0 .0114-.01143 0-.01143l-1.36-.10286c-.4914-.04-.8857-.33143-.9315-.70285l-.2514-1.90286c0-.00572-.0171-.00572-.0171 0l-.2457 1.89714c-.0458.37143-.44.66857-.9315.70286l-1.3657.10857c-.0114 0-.0114.01143 0 .01143l1.3657.10857c.4972.04.8857.33143.9315.70286l.2457 1.89717c0 .0057.0171.0057.0171 0l.2514-1.90289c.0458-.37142.4401-.66285.9315-.70285z" fill="url(#t)"/><path d="m19.9601 7.84035c-.2915-.27428-2.4972-.06286-2.4972-.06286-.0114 0-.0114.01143 0 .01143l1.3657.10857c.4972.04.8857.33143.9315.70286l.2285 1.77715.0172.0057c0 .0057.2628-2.24571-.0457-2.54285z" fill="url(#u)"/><path d="m18.8229 7.89778c.4914.04.8857.33143.9314.70286l.16 1.22857s.0514-1.65715-.4343-1.89715c-.3828-.18857-.2685-.00571-2.0171-.13714z" fill="url(#v)"/><path d="m19.8458 7.16031c.1028-.97143.1543-1.44571.2286-1.70285l-.0515-.38286c0-.00572-.0171-.00572-.0171 0l-.2457 1.89714c-.0457.37143-.44.66857-.9315.70286l-.9028.06857c1.0457.09143 1.8571-.02286 1.92-.58286z" fill="url(#w)"/><path d="m20.0057 10.5035-.2457-1.89715c-.0457-.37143-.44-.66857-.9314-.70286l-1.3657-.10857s1.1371.04572 1.3771.04572.9429.10285 1.0057.76c.0629.65714.16 1.90286.16 1.90286z" fill="url(#x)"/><path d="m20.0229 10.5035.2458-1.89715c.0457-.37143.44-.66857.9314-.70286l1.3657-.10857s-1.1371.04572-1.3771.04572-.9429.10285-1.0057.76c-.0686.65714-.1601 1.90286-.1601 1.90286z" fill="url(#y)"/><path d="m9.09709 16.6743c-.52571.5257-1.37143.5257-1.89714 0 .52571.5257.52571 1.3714 0 1.8972.52571-.5258 1.37143-.5258 1.89714 0-.52571-.5258-.52571-1.3715 0-1.8972z" fill="#fcce38" opacity=".5"/><path d="m8.14851 18.9083c.71008 0 1.28571-.5756 1.28571-1.2857s-.57563-1.2857-1.28571-1.2857-1.28572.5756-1.28572 1.2857.57564 1.2857 1.28572 1.2857z" fill="url(#z)"/><path d="m7.09124 17.4913-1.20572.1257c-.01142 0-.01142.0114 0 .0171l1.20572.1257c.44.0457.78286.3943.82857.8343l.22286 2.2515c0 .0114.01143.0114.01714 0l.21714-2.2515c.04-.44.38858-.7886.82858-.8343l1.21147-.1257c.0114 0 .0114-.0114 0-.0171l-1.21147-.1257c-.44-.0458-.78858-.3943-.82858-.8343l-.21714-2.2515c0-.0114-.01143-.0114-.01714 0l-.22286 2.2515c-.04571.44-.39429.7885-.82857.8343z" fill="url(#A)"/><path d="m8.19964 17.5543c.25714.3257 2.21716.0742 2.21716.0742.0114 0 .0114-.0114 0-.0171l-1.21144-.1257c-.44-.0457-.78858-.3943-.82858-.8343l-.20571-2.1086-.01143-.0057c-.00571.0057-.23428 2.6743.04 3.0172z" fill="url(#B)"/><path d="m7.09131 17.7541c.44.0457.78286.3943.82857.8343l.14286 1.4514s.04571-1.96-.38857-2.2457c-.33715-.2228-.24-.0114-1.79429-.1657z" fill="url(#C)"/><path d="m8.29692 18.3655c-.09142 1.1543-.13714 1.7143-.2 2.0229l.04572.4514c0 .0114.01143.0114.01714 0l.21714-2.2514c.04-.44.38858-.7886.82858-.8343l.8057-.0857c-.93713-.1029-1.65713.0343-1.71428.6971z" fill="url(#D)"/><path d="m8.15405 14.4053.21715 2.2514c.04.44.38857.7886.82857.8343l1.21143.1257s-1.01143-.0514-1.22286-.0514-.83429-.1257-.89143-.9029c-.05714-.7828-.14286-2.2571-.14286-2.2571z" fill="url(#E)"/><path d="m8.14264 14.4053-.21714 2.2514c-.04.44-.38857.7886-.82857.8343l-1.21143.1257s1.01143-.0514 1.22286-.0514.83428-.1257.89143-.9029c.05714-.7828.14285-2.2571.14285-2.2571z" fill="url(#F)"/></svg>